<?xml version="1.0" encoding="utf-8"?>
<!-- Generator: Adobe Illustrator 17.0.0, SVG Export Plug-In . SVG Version: 6.00 Build 0)  -->
<!DOCTYPE svg PUBLIC "-//W3C//DTD SVG 1.1//EN" "http://www.w3.org/Graphics/SVG/1.1/DTD/svg11.dtd">
<svg version="1.1" id="bigplay-gradient.fw-Page_x25_201"
	 xmlns="http://www.w3.org/2000/svg" xmlns:xlink="http://www.w3.org/1999/xlink" x="0px" y="0px" width="100px" height="200px"
	 viewBox="0 0 100 200" enable-background="new 0 0 100 200" xml:space="preserve">
<path fill="none" d="z"/>
<g id="Background">
</g>
<path fill="none" d="z"/>
<path fill="#FF4F55" d="M22.939,121.939c-15.222,15.222-15.221,39.901,0,55.122s39.901,15.222,55.122,0
	c15.221-15.221,15.221-39.901,0-55.122C62.84,106.717,38.16,106.718,22.939,121.939z M72.549,171.549
	c-12.177,12.176-31.92,12.176-44.098,0c-12.177-12.177-12.177-31.921,0-44.098c12.177-12.177,31.92-12.177,44.098,0
	C84.726,139.629,84.726,159.372,72.549,171.549z"/>
<g>
	<path fill="#FF4F55" d="M36.858,133.909c0-2.144,1.552-3.081,3.449-2.082l30.13,15.858c1.897,0.998,1.897,2.632,0,3.631
		l-30.13,15.858c-1.897,0.998-3.449,0.061-3.449-2.082L36.858,133.909z"/>
</g>
<path fill="#FFFFFF" d="M22.939,22.439c-15.222,15.222-15.221,39.901,0,55.122s39.901,15.222,55.122,0
	c15.221-15.221,15.221-39.901,0-55.122C62.84,7.217,38.16,7.218,22.939,22.439z M72.549,72.049
	c-12.177,12.176-31.92,12.176-44.098,0c-12.177-12.177-12.177-31.921,0-44.098c12.177-12.177,31.92-12.177,44.098,0
	C84.726,40.129,84.726,59.872,72.549,72.049z"/>
<g>
	<path fill="#FFFFFF" d="M36.858,34.409c0-2.144,1.552-3.081,3.449-2.082l30.13,15.858c1.897,0.998,1.897,2.632,0,3.631
		l-30.13,15.858c-1.897,0.998-3.449,0.062-3.449-2.082L36.858,34.409z"/>
</g>
</svg>
