<?xml version="1.0" encoding="utf-8"?>
<!-- Generator: Adobe Illustrator 17.0.0, SVG Export Plug-In . SVG Version: 6.00 Build 0)  -->
<!DOCTYPE svg PUBLIC "-//W3C//DTD SVG 1.1//EN" "http://www.w3.org/Graphics/SVG/1.1/DTD/svg11.dtd">
<svg version="1.1" id="controls.fw-Page_x25_201" xmlns="http://www.w3.org/2000/svg" xmlns:xlink="http://www.w3.org/1999/xlink"
	 x="0px" y="0px" width="144px" height="32px" viewBox="0 0 144 32" enable-background="new 0 0 144 32" xml:space="preserve">
<path fill="none" d="z"/>
<g id="BG">
</g>
<g>
	<path fill="#FFFFFF" d="M109,10c-0.435,0-0.801,0.419-0.939,1H98.5v1h9.561c0.138,0.581,0.504,1,0.939,1c0.552,0,1-0.672,1-1.5
		C110,10.672,109.552,10,109,10z"/>
	<path fill="#FFFFFF" d="M105,9c0.435,0,0.801-0.419,0.939-1h3.561V7h-3.561c-0.138-0.581-0.504-1-0.939-1s-0.801,0.419-0.939,1
		H98.5v1h5.561C104.199,8.581,104.565,9,105,9z"/>
	<path fill="#FFFFFF" d="M109,5c0.552,0,1-0.672,1-1.5S109.552,2,109,2c-0.435,0-0.801,0.419-0.939,1H98.5v1h9.561
		C108.199,4.581,108.565,5,109,5z"/>
</g>
<g id="backlight">
	<path fill="#FFFFFF" d="M83.5,21.5h9v5h-9V21.5z"/>
	<path fill="#FFFFFF" d="M83.5,5.5h9v5h-9V5.5z"/>
</g>
<g>
	<path fill="#FFFFFF" d="M66,8c0,3.314,2.686,6,6,6s6-2.686,6-6c0-2.169-1.15-4.071-2.875-5.125l-1.33,1.33
		C75.216,4.878,76.2,6.323,76.2,8c0,2.32-1.88,4.2-4.2,4.2s-4.2-1.88-4.2-4.2c0-1.16,0.478-2.202,1.239-2.961L71,7V2h-5l1.76,1.76
		C66.674,4.846,66,6.343,66,8z"/>
	<path fill="#FFFFFF" d="M75.125,18.875l-1.33,1.33C75.216,20.878,76.2,22.323,76.2,24c0,2.32-1.88,4.2-4.2,4.2s-4.2-1.88-4.2-4.2
		c0-1.16,0.478-2.202,1.239-2.961L71,23v-5h-5l1.76,1.76C66.674,20.846,66,22.343,66,24c0,3.314,2.686,6,6,6s6-2.686,6-6
		C78,21.831,76.85,19.929,75.125,18.875z"/>
</g>
<g id="cc">
	<g>
		<g>
			<path fill="#FFFFFF" d="M53.63,10.647c-0.928,0-1.477-0.502-1.725-0.807c-0.85-1.046-0.804-2.823,0.098-3.803
				c0.411-0.447,1.596-1.333,3.7,0.103L55.14,6.965c-0.604-0.412-1.719-0.993-2.4-0.252c-0.559,0.607-0.587,1.844-0.057,2.496
				c0.663,0.816,1.84,0.296,2.483-0.086l0.512,0.859C54.854,10.473,54.176,10.647,53.63,10.647z"/>
		</g>
		<g>
			<path fill="#FFFFFF" d="M58.63,10.647c-0.928,0-1.477-0.502-1.725-0.807c-0.85-1.046-0.804-2.823,0.098-3.803
				c0.411-0.447,1.595-1.333,3.7,0.103L60.14,6.965c-0.605-0.412-1.719-0.993-2.4-0.252c-0.559,0.607-0.587,1.844-0.057,2.496
				c0.662,0.816,1.84,0.296,2.483-0.086l0.512,0.859C59.854,10.473,59.176,10.647,58.63,10.647z"/>
		</g>
	</g>
	<path fill="#FFFFFF" d="M49,2v12h14V2H49z M62,13H50V3h12V13z"/>
</g>
<g>
	<polygon fill="#FFFFFF" points="17,5 17,11 21,11 21,11.062 25,14 25,2 21,5 	"/>
	<polygon fill="#FFFFFF" points="17,21 17,27 21,27 21,27.062 25,30 25,18 21,21 	"/>
	<path fill="#FFFFFF" d="M28.775,18.073c-0.726-0.6-1.521-0.633-1.875-0.563l0.192,0.981c0.02-0.004,0.533-0.086,1.071,0.374
		c0.627,0.534,1.367,1.858,1.336,5.13c-0.031,3.322-0.788,4.645-1.418,5.17c-0.505,0.422-0.966,0.352-0.978,0.346l-0.208,0.979
		c0.03,0.006,0.141,0.027,0.307,0.027c0.336,0,0.899-0.086,1.478-0.549c1.179-0.945,1.791-2.952,1.819-5.963
		C30.528,21.035,29.948,19.04,28.775,18.073z"/>
	<path fill="#FFFFFF" d="M28.5,24.006c0.018-1.398-0.315-2.404-0.989-2.99c-0.708-0.615-1.499-0.517-1.586-0.502l0.144,0.989
		c0.019,0.001,0.434-0.049,0.799,0.278c0.427,0.383,0.646,1.147,0.632,2.212c-0.014,1.088-0.251,1.864-0.688,2.244
		c-0.35,0.305-0.726,0.264-0.733,0.261l-0.157,0.988c0.023,0.003,0.1,0.014,0.214,0.014c0.287,0,0.811-0.067,1.306-0.484
		C28.125,26.438,28.481,25.427,28.5,24.006z"/>
	<polygon fill="#FFFFFF" points="3,14 14,8.5 3,3 	"/>
	<rect x="3" y="18" fill="#FFFFFF" width="3" height="12"/>
	<rect x="10" y="18" fill="#FFFFFF" width="3" height="12"/>
</g>
<g>
	<polygon fill="#FFFFFF" points="34,7 39,2 34,2 	"/>
	<polygon fill="#FFFFFF" points="34,14 39,14 34,9 	"/>
	<polygon fill="#FFFFFF" points="41,2 46,7 46,2 	"/>
	<polygon fill="#FFFFFF" points="46,14 46,9 41,14 	"/>
	<polygon fill="#FFFFFF" points="42,22 46,22 42,18 	"/>
	<polygon fill="#FFFFFF" points="38,22 38,18 34,22 	"/>
	<polygon fill="#FFFFFF" points="38,30 38,26 34,26 	"/>
	<polygon fill="#FFFFFF" points="42,30 46,26 42,26 	"/>
</g>
<g id="stop">
	<g>
		<rect x="115" y="3" fill="#FFFFFF" width="10" height="10"/>
	</g>
</g>
<polygon fill="#FFFFFF" points="142.582,5.273 138.825,5.175 138.727,1.418 136,4.005 133.273,1.418 133.175,5.175 129.418,5.273 
	132.005,8 129.418,10.727 133.175,10.825 133.273,14.582 136,11.995 138.727,14.582 138.825,10.825 142.582,10.727 139.995,8 "/>
<path fill="none" d="z"/>
</svg>
